<svg id="e2CFqp4BWbT1" xmlns="http://www.w3.org/2000/svg" xmlns:xlink="http://www.w3.org/1999/xlink" viewBox="0 0 375 812" shape-rendering="geometricPrecision" text-rendering="geometricPrecision"><g clip-path="url(#e2CFqp4BWbT51)"><g><rect width="375" height="812" rx="0" ry="0" fill="#fafafa"/><g><path d="M0.013839,703.446c-.018387-.15-.018517-.298,0-.446v.446C1.15852,712.762,73.0639,726,121.481,726c27.507,0,19.831,9.5,23.507,26.5c3.892,18,23.773,20.5,45.002,20.5c21.23,0,34.752-5.5,38.502-20.5c4.912-19.644-4.5-26.5,29.477-26.5c15.06,0,114.621-5.8,117.031-23v109h-374.986161v-108.554Z" fill="#fff"/></g><g><rect width="57" height="58" rx="20" ry="20" transform="translate(159 703)" fill="#49bab4"/></g><rect width="24" height="24" rx="0" ry="0" transform="translate(175 720)" fill="#49bab4"/><path d="M192.742,728h-11.484c-1.154,0-2.068.973-1.996,2.125l.5,8c.066,1.054.94,1.875,1.996,1.875h10.484c1.056,0,1.93-.821,1.996-1.875l.5-8c.072-1.152-.842-2.125-1.996-2.125Zm-11.484-2c-2.307,0-4.136,1.947-3.992,4.25l.5,8c.131,2.108,1.88,3.75,3.992,3.75h10.484c2.112,0,3.861-1.642,3.992-3.75l.5-8c.144-2.303-1.684-4.25-3.992-4.25h-11.484Z" clip-rule="evenodd" fill="#fff" fill-rule="evenodd"/><path d="M182,727c0-2.761,2.239-5,5-5s5,2.239,5,5v2c0,.552-.448,1-1,1s-1-.448-1-1v-2c0-1.657-1.343-3-3-3s-3,1.343-3,3v2c0,.552-.448,1-1,1s-1-.448-1-1v-2Z" clip-rule="evenodd" fill="#fff" fill-rule="evenodd"/><path d="M39.1572,777.771v-3.066c0-.78.6359-1.414,1.4238-1.419h2.8861c.7916,0,1.4334.635,1.4334,1.419v0v3.076c-.0002.662.5338,1.203,1.2025,1.219h1.9241c1.918,0,3.4729-1.539,3.4729-3.438v0-8.724c-.0102-.747-.3645-1.449-.962-1.905l-6.5803-5.248c-1.1528-.913-2.7915-.913-3.9443,0l-6.5514,5.258c-.5997.454-.9546,1.157-.962,1.904v8.715c0,1.899,1.5549,3.438,3.4729,3.438h1.9241c.6854,0,1.241-.55,1.241-1.229v0" fill="none" stroke="#393939" stroke-width="1.5" stroke-linecap="round" stroke-linejoin="round"/><circle r="4.77803" transform="translate(332.579 764.278)" fill="none" stroke="#393939" stroke-width="1.5" stroke-linecap="round" stroke-linejoin="round"/><path d="M325,775.702c-.001-.336.074-.668.22-.971.457-.915,1.748-1.4,2.819-1.62.772-.165,1.555-.275,2.343-.329c1.459-.128,2.926-.128,4.385,0c.787.055,1.57.165,2.343.329c1.071.22,2.361.659,2.819,1.62.293.617.293,1.333,0,1.95-.458.961-1.748,1.4-2.819,1.611-.772.172-1.555.285-2.343.339-1.188.1-2.38.119-3.57.055-.275,0-.54,0-.815-.055-.785-.054-1.566-.167-2.334-.339-1.08-.211-2.361-.65-2.828-1.611-.145-.306-.22-.641-.22-.979Z" clip-rule="evenodd" fill="none" fill-rule="evenodd" stroke="#393939" stroke-width="1.5" stroke-linecap="round" stroke-linejoin="round"/><path d="M106.512,761.439c-3.908,0-7.073,3.164-7.073,7.064c0,3.899,3.165,7.063,7.073,7.063c1.95,0,3.713-.786,4.994-2.061c1.286-1.28,2.079-3.048,2.079-5.002c0-3.9-3.165-7.064-7.073-7.064ZM97,768.503c0-5.25,4.26-9.503,9.512-9.503s9.512,4.253,9.512,9.503c0,2.189-.742,4.206-1.987,5.813l2.605,2.602c.477.476.477,1.248.001,1.724-.476.477-1.248.477-1.724.001l-2.61-2.606c-1.604,1.234-3.616,1.968-5.797,1.968-5.252,0-9.512-4.253-9.512-9.502Z" clip-rule="evenodd" fill="#393939" fill-rule="evenodd" stroke="#feffff" stroke-linecap="round" stroke-linejoin="round"/><path d="M295.917,64.4891v-.1825c.027-.5399.2-1.063.502-1.5154.501-.5435.845-1.2094.994-1.928c0-.5554,0-1.1188.049-1.6742.25-2.6738,2.894-4.5225,5.506-4.5225h.064c2.612,0,5.255,1.8487,5.514,4.5225.049.5554,0,1.1188.041,1.6742.151.7202.494,1.3883.994,1.9359.304.4484.477.9696.501,1.5075v.1746c.018.7253-.231,1.4327-.703,1.9915-.623.6534-1.469,1.0599-2.377,1.1425-2.663.2856-5.35.2856-8.012,0-.907-.0862-1.752-.4921-2.377-1.1425-.465-.5593-.711-1.2624-.696-1.9836Z" clip-rule="evenodd" fill="none" fill-rule="evenodd" stroke="#393939" stroke-width="1.5" stroke-linecap="round" stroke-linejoin="round"/><path d="M300.962,70.3765c.416.5222,1.027.8602,1.698.9391s1.346-.1077,1.876-.5186c.163-.1215.31-.2628.437-.4205" fill="none" stroke="#393939" stroke-width="1.5" stroke-linecap="round" stroke-linejoin="round"/><circle r="4" transform="translate(310 57.8979)" fill="#49bab4" stroke="#fff" stroke-width="2"/><path d="M344.468,64.683c1.583,0,2.865,1.2608,2.865,2.8163c0,1.5547-1.282,2.8155-2.865,2.8155s-2.866-1.2608-2.866-2.8155c0-1.5555,1.283-2.8163,2.866-2.8163Zm-7.065,1.6153c.693,0,1.256.5531,1.256,1.2344c0,.6805-.563,1.2345-1.256,1.2345h-5.48c-.693,0-1.256-.554-1.256-1.2345c0-.6813.563-1.2344,1.256-1.2344h5.48ZM333.532,55.5c1.584,0,2.866,1.2608,2.866,2.8155c0,1.5555-1.282,2.8163-2.866,2.8163-1.582,0-2.865-1.2608-2.865-2.8163c0-1.5547,1.283-2.8155,2.865-2.8155Zm12.546,1.5819c.692,0,1.255.5531,1.255,1.2336c0,.6813-.563,1.2344-1.255,1.2344h-5.48c-.693,0-1.256-.5531-1.256-1.2344c0-.6805.563-1.2336,1.256-1.2336h5.48Z" fill="#393939"/><path d="M35.2089,59.25c0-1.34.35-2.52,1.05-3.54.7-1.04,1.66-1.85,2.88-2.43c1.24-.6,2.65-.9,4.23-.9c1.6,0,2.98.28,4.14.84s2.05,1.35,2.67,2.37c.64,1.02.96,2.23.96,3.63h-4.83c0-.78-.27-1.39-.81-1.83-.54-.46-1.27-.69-2.19-.69-.98,0-1.77.21-2.37.63-.58.42-.87,1-.87,1.74c0,.68.18,1.2.54,1.56s.93.62,1.71.78l3.33.69c1.98.4,3.45,1.1,4.41,2.1.96.98,1.44,2.35,1.44,4.11c0,1.42-.35,2.67-1.05,3.75-.7,1.06-1.69,1.88-2.97,2.46-1.26.58-2.74.87-4.44.87-1.64,0-3.08-.28-4.32-.84-1.22-.56-2.17-1.35-2.85-2.37-.66-1.04-.99-2.25-.99-3.63h4.83c0,.8.29,1.42.87,1.86s1.41.66,2.49.66c1.1,0,1.97-.2,2.61-.6.64-.42.96-.98.96-1.68c0-.62-.16-1.1-.48-1.44-.3-.34-.82-.58-1.56-.72l-3.39-.69c-1.98-.4-3.48-1.16-4.5-2.28-1-1.12-1.5-2.59-1.5-4.41ZM53.1502,82.2v-22.2h4.35l.24,1.83c.42-.7,1.07-1.26,1.95-1.68s1.85-.63,2.91-.63c1.4,0,2.63.31,3.69.93s1.89,1.51,2.49,2.67c.6,1.14.9,2.52.9,4.14c0,1.58-.28,2.99-.84,4.23-.54,1.22-1.34,2.18-2.4,2.88-1.04.7-2.31,1.05-3.81,1.05-1.04,0-2-.18-2.88-.54s-1.54-.82-1.98-1.38v8.7h-4.62Zm4.65-14.7c0,.74.15,1.4.45,1.98.32.56.75,1,1.29,1.32.56.3,1.2.45,1.92.45.74,0,1.37-.16,1.89-.48.54-.32.95-.76,1.23-1.32.3-.56.45-1.21.45-1.95s-.15-1.39-.45-1.95c-.28-.56-.69-1-1.23-1.32-.52-.32-1.15-.48-1.89-.48-.72,0-1.36.16-1.92.48-.54.3-.97.73-1.29,1.29-.3.56-.45,1.22-.45,1.98ZM81.6596,60v4.35h-1.47c-1.32,0-2.36.32-3.12.96-.74.64-1.11,1.7-1.11,3.18v6.51h-4.62v-14.97h4.35l.36,3.21h-.42c.2-1,.65-1.82,1.35-2.46.72-.66,1.69-.99,2.91-.99.28,0,.56.02.84.06.3.02.61.07.93.15Zm1.3363,15v-15h4.62v15h-4.62Zm2.28-17.34c-.74,0-1.37-.25-1.89-.75-.5-.52-.75-1.15-.75-1.89s.25-1.36.75-1.86c.52-.5,1.15-.75,1.89-.75.72,0,1.33.25,1.83.75.52.5.78,1.12.78,1.86s-.26,1.37-.78,1.89c-.5.5-1.11.75-1.83.75ZM88.6718,60h10.29v3.84h-10.29v-3.84Zm10.29-7.44v3.96c-.26,0-.5,0-.72,0-.2,0-.39,0-.57,0-.94,0-1.56.22-1.86.66s-.45.98-.45,1.62v16.2h-4.62v-16.2c0-1.5.25-2.72.75-3.66s1.21-1.63,2.13-2.07c.92-.46,2.01-.69,3.27-.69.32,0,.65.02.99.06.36.02.72.06,1.08.12Zm.253,7.44h10.3202v3.84h-10.3202v-3.84Zm7.4702,15h-4.62v-19.65h4.62v19.65Z" fill="#49bab4"/><g><g><rect width="92" height="49" rx="20" ry="20" transform="translate(28 114)" fill="#e4e4e4"/><path d="M61.9538,145.21c-.7,0-1.358-.131-1.974-.392-.616-.271-1.1526-.644-1.61-1.12-.4573-.485-.8166-1.045-1.078-1.68-.252-.635-.378-1.321-.378-2.058s.126-1.419.378-2.044c.2614-.635.6207-1.19,1.078-1.666.4574-.476.994-.845,1.61-1.106.616-.271,1.274-.406,1.974-.406.8867,0,1.6894.182,2.408.546.728.364,1.3254.873,1.792,1.526.4667.653.756,1.409.868,2.268h-2.254c-.0746-.485-.2473-.91-.518-1.274-.2613-.364-.588-.649-.98-.854-.3826-.205-.812-.308-1.288-.308-.4386,0-.8353.079-1.19.238-.3453.159-.6486.387-.91.686-.252.299-.448.653-.588,1.064-.1306.401-.196.845-.196,1.33c0,.495.0654.947.196,1.358.14.401.336.751.588,1.05.2614.299.5647.532.91.7.3547.159.7514.238,1.19.238.476,0,.91-.103,1.302-.308.392-.215.714-.504.966-.868.2614-.373.434-.798.518-1.274h2.254c-.1213.868-.4153,1.629-.882,2.282-.4666.653-1.0593,1.162-1.778,1.526s-1.5213.546-2.408.546ZM72.7917,145v-.924c-.2427.345-.5507.611-.924.798-.3734.177-.8167.266-1.33.266-.7747,0-1.4-.21-1.876-.63s-.714-.98-.714-1.68c0-.728.2893-1.283.868-1.666.5786-.383,1.4093-.574,2.492-.574.2146,0,.42.009.616.028.196.009.406.028.63.056v-.448c0-.42-.112-.747-.336-.98s-.5414-.35-.952-.35c-.42,0-.7514.117-.994.35s-.3827.56-.42.98h-1.75c.0373-.579.1913-1.078.462-1.498.28-.429.6486-.761,1.106-.994.4666-.233.9986-.35,1.596-.35.98,0,1.7406.257,2.282.77.5506.513.826,1.227.826,2.142v4.704h-1.582Zm-3.01-2.226c0,.308.1026.555.308.742.2146.187.504.28.868.28.4946,0,.882-.126,1.162-.378.2893-.261.434-.607.434-1.036v-.532c-.224-.037-.4247-.061-.602-.07-.1774-.019-.35-.028-.518-.028-.5414,0-.952.084-1.232.252s-.42.425-.42.77Zm13.7309-1.512c0,.737-.14,1.4-.42,1.988-.2706.579-.6533,1.041-1.148,1.386-.4853.336-1.0686.504-1.75.504-.4386,0-.8446-.093-1.218-.28s-.7-.462-.98-.826v3.668h-1.946v-10.178h1.792v1.092c.2894-.401.6347-.705,1.036-.91.4014-.215.84-.322,1.316-.322.672,0,1.2554.173,1.75.518.4947.336.8774.798,1.148,1.386.28.579.42,1.237.42,1.974Zm-2.002,0c0-.7-.1726-1.232-.518-1.596-.3453-.373-.756-.56-1.232-.56-.308,0-.5973.084-.868.252-.2706.168-.4853.411-.644.728-.1586.308-.238.7-.238,1.176c0,.467.0794.863.238,1.19.1587.317.3687.555.63.714.2707.159.5647.238.882.238.476,0,.8867-.177,1.232-.532.3454-.364.518-.901.518-1.61Zm9.563,1.344c0,.775-.2893,1.391-.868,1.848-.5693.457-1.386.686-2.45.686-1.0547,0-1.8807-.238-2.478-.714-.588-.485-.9193-1.143-.994-1.974h1.862c.0093.383.1633.691.462.924.308.224.7.336,1.176.336.3827,0,.7-.061.952-.182.252-.131.378-.327.378-.588c0-.233-.0793-.411-.238-.532s-.42-.215-.784-.28l-1.344-.252c-.672-.121-1.1993-.364-1.582-.728s-.574-.835-.574-1.414c0-.467.126-.877.378-1.232s.6067-.63,1.064-.826.994-.294,1.61-.294c.6253,0,1.176.107,1.652.322.4853.205.868.504,1.148.896.2893.392.4573.854.504,1.386h-1.862c-.028-.364-.1727-.649-.434-.854-.2613-.215-.5973-.322-1.008-.322-.3547,0-.644.065-.868.196-.2147.121-.322.303-.322.546c0,.224.0793.392.238.504.1587.103.406.187.742.252l1.442.266c.728.14,1.274.378,1.638.714.3733.336.56.775.56,1.316Z" fill="#393939"/></g><g><rect width="92" height="49" rx="20" ry="20" transform="translate(139 114)" fill="#49bab4"/><path d="M171.023,141.724h-1.582v3.276h-2.128v-10.052h3.71c.822,0,1.526.126,2.114.378.598.252,1.055.625,1.372,1.12.327.495.49,1.111.49,1.848c0,.728-.163,1.349-.49,1.862-.317.513-.774.905-1.372,1.176-.588.261-1.292.392-2.114.392Zm-.014-4.984h-1.568v3.192h1.568c.598,0,1.06-.145,1.386-.434.327-.299.49-.695.49-1.19s-.163-.877-.49-1.148c-.326-.28-.788-.42-1.386-.42Zm9.584,8.26v-.924c-.242.345-.55.611-.924.798-.373.177-.816.266-1.33.266-.774,0-1.4-.21-1.876-.63s-.714-.98-.714-1.68c0-.728.29-1.283.868-1.666.579-.383,1.41-.574,2.492-.574.215,0,.42.009.616.028.196.009.406.028.63.056v-.448c0-.42-.112-.747-.336-.98s-.541-.35-.952-.35c-.42,0-.751.117-.994.35-.242.233-.382.56-.42.98h-1.75c.038-.579.192-1.078.462-1.498.28-.429.649-.761,1.106-.994.467-.233.999-.35,1.596-.35.98,0,1.741.257,2.282.77.551.513.826,1.227.826,2.142v4.704h-1.582Zm-3.01-2.226c0,.308.103.555.308.742.215.187.504.28.868.28.495,0,.882-.126,1.162-.378.29-.261.434-.607.434-1.036v-.532c-.224-.037-.424-.061-.602-.07-.177-.019-.35-.028-.518-.028-.541,0-.952.084-1.232.252s-.42.425-.42.77Zm8.215-1.848v4.074h-1.946v-7.476h1.792v1.064c.28-.373.607-.667.98-.882.383-.215.822-.322,1.316-.322.756,0,1.368.243,1.834.728.467.476.7,1.162.7,2.058v4.83h-1.932v-4.172c0-.56-.112-.985-.336-1.274-.214-.299-.541-.448-.98-.448-.261,0-.504.07-.728.21-.214.131-.387.331-.518.602-.121.261-.182.597-.182,1.008Zm10.947,2.184v1.694c-.234.121-.472.205-.714.252-.234.056-.495.084-.784.084-.504,0-.948-.093-1.33-.28-.374-.196-.663-.485-.868-.868-.206-.392-.308-.863-.308-1.414v-3.388h-1.512v-1.666h1.512v-2.212h1.932v2.212h2.142v1.666h-2.142v2.94c0,.429.093.742.28.938.196.187.466.28.812.28.186,0,.364-.019.532-.056.168-.047.317-.107.448-.182Zm7.517-.504c0,.775-.289,1.391-.868,1.848-.569.457-1.386.686-2.45.686-1.055,0-1.881-.238-2.478-.714-.588-.485-.919-1.143-.994-1.974h1.862c.009.383.163.691.462.924.308.224.7.336,1.176.336.383,0,.7-.061.952-.182.252-.131.378-.327.378-.588c0-.233-.079-.411-.238-.532s-.42-.215-.784-.28l-1.344-.252c-.672-.121-1.199-.364-1.582-.728s-.574-.835-.574-1.414c0-.467.126-.877.378-1.232s.607-.63,1.064-.826.994-.294,1.61-.294c.625,0,1.176.107,1.652.322.485.205.868.504,1.148.896.289.392.457.854.504,1.386h-1.862c-.028-.364-.173-.649-.434-.854-.261-.215-.597-.322-1.008-.322-.355,0-.644.065-.868.196-.215.121-.322.303-.322.546c0,.224.079.392.238.504.159.103.406.187.742.252l1.442.266c.728.14,1.274.378,1.638.714.373.336.56.775.56,1.316Z" fill="#fff"/></g><g><rect width="92" height="49" rx="20" ry="20" transform="translate(250 114)" opacity="0.5" fill="#cdcdcd"/><path d="M284.776,141.878c0,.635-.163,1.199-.49,1.694-.326.485-.793.868-1.4,1.148-.597.28-1.32.42-2.17.42-.84,0-1.572-.14-2.198-.42-.616-.289-1.101-.695-1.456-1.218-.354-.523-.56-1.139-.616-1.848h2.156c.028.56.215,1.003.56,1.33.355.327.859.49,1.512.49.364,0,.682-.051.952-.154.28-.103.5-.252.658-.448.159-.196.238-.425.238-.686c0-.317-.116-.569-.35-.756-.233-.196-.564-.336-.994-.42l-1.652-.322c-.382-.065-.737-.173-1.064-.322-.326-.149-.611-.336-.854-.56-.242-.224-.434-.495-.574-.812s-.21-.681-.21-1.092c0-.597.159-1.129.476-1.596.327-.467.77-.831,1.33-1.092.57-.261,1.218-.392,1.946-.392.756,0,1.428.14,2.016.42s1.064.677,1.428,1.19c.364.504.565,1.106.602,1.806h-2.156c-.018-.355-.112-.663-.28-.924-.158-.271-.373-.476-.644-.616-.27-.149-.583-.224-.938-.224-.345,0-.639.061-.882.182-.233.112-.415.266-.546.462-.13.187-.196.401-.196.644c0,.224.061.411.182.56.131.149.299.271.504.364.206.084.43.149.672.196l1.722.35c.887.177,1.559.481,2.016.91.467.42.7.999.7,1.736Zm3.348-.952v4.074h-1.946v-10.052h1.946v3.556c.252-.345.546-.616.882-.812.345-.205.765-.308,1.26-.308.756,0,1.367.243,1.834.728.466.476.7,1.162.7,2.058v4.83h-1.932v-4.172c0-.56-.112-.985-.336-1.274-.215-.299-.542-.448-.98-.448-.262,0-.504.07-.728.21-.215.131-.388.331-.518.602-.122.261-.182.597-.182,1.008ZM296.422,145h-1.946v-7.476h1.946v7.476Zm.308-9.212c0,.327-.121.602-.364.826-.233.215-.546.322-.938.322-.382,0-.695-.107-.938-.322-.233-.224-.35-.499-.35-.826c0-.345.117-.625.35-.84.243-.224.556-.336.938-.336.392,0,.705.112.938.336.243.215.364.495.364.84Zm3.37,5.586v3.626h-1.946v-7.476h1.792v1.442c.28-.476.686-.849,1.218-1.12s1.097-.406,1.694-.406v2.016c-.541-.037-1.022-.009-1.442.084-.411.084-.733.275-.966.574-.233.289-.35.709-.35,1.26Zm8.895,1.736v1.694c-.233.121-.471.205-.714.252-.233.056-.494.084-.784.084-.504,0-.947-.093-1.33-.28-.373-.196-.662-.485-.868-.868-.205-.392-.308-.863-.308-1.414v-3.388h-1.512v-1.666h1.512v-2.212h1.932v2.212h2.142v1.666h-2.142v2.94c0,.429.094.742.28.938.196.187.467.28.812.28.187,0,.364-.019.532-.056.168-.047.318-.107.448-.182Zm7.518-.504c0,.775-.289,1.391-.868,1.848-.569.457-1.386.686-2.45.686-1.055,0-1.881-.238-2.478-.714-.588-.485-.919-1.143-.994-1.974h1.862c.009.383.163.691.462.924.308.224.7.336,1.176.336.383,0,.7-.061.952-.182.252-.131.378-.327.378-.588c0-.233-.079-.411-.238-.532s-.42-.215-.784-.28l-1.344-.252c-.672-.121-1.199-.364-1.582-.728s-.574-.835-.574-1.414c0-.467.126-.877.378-1.232s.607-.63,1.064-.826.994-.294,1.61-.294c.625,0,1.176.107,1.652.322.485.205.868.504,1.148.896.289.392.457.854.504,1.386h-1.862c-.028-.364-.173-.649-.434-.854-.261-.215-.597-.322-1.008-.322-.355,0-.644.065-.868.196-.215.121-.322.303-.322.546c0,.224.079.392.238.504.159.103.406.187.742.252l1.442.266c.728.14,1.274.378,1.638.714.373.336.56.775.56,1.316Z" fill="#393939"/></g><rect width="92" height="49" rx="20" ry="20" transform="translate(361 114)" opacity="0.5" fill="#cdcdcd"/></g><path d="M267.378,762.886c-1.709-1.781-4.588-1.807-6.455.018-.006.006-.012.011-.018.017-1.812,1.659-1.838,4.437.018,6.251l.005.004l7.009,6.971l7.14-6.975c.006-.006.012-.012.018-.017c1.812-1.66,1.838-4.437-.018-6.251-1.857-1.815-4.75-1.815-6.608,0-.146.143-.344.222-.549.219-.205-.004-.4-.089-.542-.237Zm.569-1.568c-2.352-1.914-5.824-1.732-8.089.472-2.49,2.29-2.461,6.088-.011,8.484.001.001.002.002.003.003l7.541,7.499c.298.297.778.299,1.078.005l7.673-7.496c2.491-2.291,2.461-6.09.008-8.486-2.278-2.226-5.753-2.386-8.203-.481Z" clip-rule="evenodd" fill="#393939" fill-rule="evenodd"/><g id="e2CFqp4BWbT33" opacity="0.75"><path d="M293.64,702.277c-14.16,0-25.64-11.479-25.64-25.638C268,662.479,279.48,651,293.64,651s25.64,11.479,25.64,25.639c0,14.159-11.48,25.638-25.64,25.638Z" fill="none" stroke="#99d6ae" stroke-width="2"/><path d="M299.545,684.512c.371-.125.676-.423.864-.842.216-.492.114-1.161-.245-1.566l-.142-.156.216-.095c.305-.133.558-.388.713-.72.11-.238.13-.333.13-.592.004-.401-.098-.703-.322-.967l-.179-.211.151-.052c.085-.03.24-.121.342-.198.66-.51.749-1.524.195-2.193l-.118-.147.224-.095c.277-.125.566-.427.705-.738.151-.341.151-.867-.004-1.213-.135-.311-.383-.578-.68-.725l-.229-.112-2.619-.013c-1.438-.004-2.615-.022-2.615-.035s.102-.272.228-.574c.305-.729.68-1.929.815-2.615.093-.475.114-.669.114-1.252c0-.777-.053-1.101-.261-1.537-.31-.643-.819-.979-1.617-1.057-.273-.026-.298-.022-.391.078-.159.168-.228.608-.277,1.735-.025.557-.07,1.109-.102,1.247-.118.522-.558,1.036-2.094,2.456-1.206,1.109-1.776,1.735-1.972,2.154l-.146.311v4.428v4.429l.097.215c.114.264.269.419.518.536.179.086.313.09,3.625.133c4.351.057,4.86.052,5.076-.017Z" fill="#7ec898"/><path d="M288.489,684.426c.322-.125.57-.388.672-.712.078-.229.065-8.905-.008-9.125-.081-.237-.248-.444-.464-.578l-.192-.121-1.625-.013c-1.764-.013-1.829-.009-2.114.225-.078.06-.192.215-.257.336l-.118.229v4.467c0,3.673.008,4.498.057,4.636.069.211.297.479.509.6.163.091.212.095,1.776.104c1.283.008,1.642,0,1.764-.048Z" fill="#7ec898"/></g><g id="e2CFqp4BWbT37" transform="matrix(.999618 0.027624-.027624 0.999618 18.723054-2.024647)" opacity="0.7"><rect width="51.28" height="51.28" rx="25.64" ry="25.64" transform="translate(57 651)" fill="none" stroke="#ff8181" stroke-width="2"/><path d="M77.1678,670.218c-.3708.126-.6763.423-.8637.842-.216.492-.1141,1.161.2444,1.567l.1426.155-.2159.095c-.3056.134-.5582.388-.713.721-.11.237-.1304.332-.1304.591-.004.401.0978.704.3219.967l.1792.211-.1507.052c-.0856.03-.2404.121-.3422.199-.66.509-.7497,1.523-.1956,2.192l.1182.147-.2241.095c-.277.125-.5663.427-.7048.738-.1508.341-.1508.867.004,1.213.1345.31.383.578.6804.725l.2282.112l2.6196.013c1.4382.004,2.6156.022,2.6156.035c0,.012-.1019.271-.2282.574-.3055.729-.6803,1.929-.8148,2.615-.0937.475-.1141.669-.1141,1.252c0,.777.053,1.1.2608,1.536.3096.643.8189.98,1.6174,1.058.273.025.2974.021.3911-.078.1589-.168.2282-.609.2771-1.735.0244-.557.0692-1.109.1018-1.247.1182-.523.5582-1.036,2.0941-2.456c1.2059-1.109,1.7763-1.735,1.9719-2.154l.1466-.311v-4.428-4.428l-.0978-.216c-.114-.263-.2688-.419-.5174-.535-.1792-.086-.3137-.091-3.6259-.134-4.3512-.056-4.8604-.052-5.0763.017Z" fill="#ff8181"/><path d="M88.2248,670.305c-.3218.125-.5704.388-.6722.712-.0774.228-.0652,8.904.0081,9.124.0815.237.2486.444.4645.578l.1915.121l1.6255.013c1.7641.013,1.8293.008,2.1145-.225.0774-.06.1915-.215.2567-.336l.1181-.229v-4.467c0-3.673-.0081-4.497-.057-4.635-.0693-.212-.2974-.479-.5093-.6-.163-.091-.2118-.095-1.7763-.104-1.2833-.009-1.6419,0-1.7641.048Z" fill="#ff8181"/></g><g transform="matrix(1 0.000443-.000443 1 0.180212-.583074)"><rect width="329" height="437" rx="25" ry="25" transform="translate(23 188)" fill="#d7eae8"/><rect width="8" height="8" rx="0" ry="0" transform="translate(116 215)" fill="none"/></g></g><g id="e2CFqp4BWbT44" transform="matrix(.999988-.004817 0.004817 0.999988-1.858907 2.05365)"><rect width="329" height="437" rx="25" ry="25" transform="matrix(.999995 0.003258-.003258 0.999995 23.712708 187.465247)" fill="#c2d0cf"/><rect width="8" height="8" rx="0" ry="0" transform="translate(116 215)" fill="none"/></g><g id="e2CFqp4BWbT47" transform="matrix(1-.000189 0.000189 1-.362306-.360385)"><rect width="329" height="437" rx="25" ry="25" transform="translate(23 188)" fill="#d7eae8"/><rect width="8" height="8" rx="0" ry="0" transform="translate(116 215)" fill="none"/><path d="M-243.626483,358.752891c0,0,24.411105-26.811997,44.99798-26.828779s12.20582,19.798231,34.24582,19.798231s12.991-19.785447,33.253-19.785447s41.692949,34.174206,41.692949,34.174206l-22.173268,19.68236-14.758356-19.689355l5.402044,59.035178h-83.882156l1.948913-59.041775-17.573126,15.36946-23.1538-22.714079Z" transform="matrix(2.01102 0 0 2.983896-34.573615-713.752399)" fill="#605d89" stroke="#3f5787" stroke-width="1.624" stroke-linejoin="round"/></g><clipPath id="e2CFqp4BWbT51"><rect width="375" height="812" rx="0" ry="0" fill="#fff"/></clipPath></g>
<script><![CDATA[
!function(t,n){"object"==typeof exports&&"undefined"!=typeof module?module.exports=n():"function"==typeof __SVGATOR_DEFINE__&&__SVGATOR_DEFINE__.amd?__SVGATOR_DEFINE__(n):((t="undefined"!=typeof globalThis?globalThis:t||self).__SVGATOR_PLAYER__=t.__SVGATOR_PLAYER__||{},t.__SVGATOR_PLAYER__["5c7f360c"]=n())}(this,(function(){"use strict";function t(t,n){var e=Object.keys(t);if(Object.getOwnPropertySymbols){var r=Object.getOwnPropertySymbols(t);n&&(r=r.filter((function(n){return Object.getOwnPropertyDescriptor(t,n).enumerable}))),e.push.apply(e,r)}return e}function n(n){for(var e=1;e<arguments.length;e++){var r=null!=arguments[e]?arguments[e]:{};e%2?t(Object(r),!0).forEach((function(t){o(n,t,r[t])})):Object.getOwnPropertyDescriptors?Object.defineProperties(n,Object.getOwnPropertyDescriptors(r)):t(Object(r)).forEach((function(t){Object.defineProperty(n,t,Object.getOwnPropertyDescriptor(r,t))}))}return n}function e(t){return(e="function"==typeof Symbol&&"symbol"==typeof Symbol.iterator?function(t){return typeof t}:function(t){return t&&"function"==typeof Symbol&&t.constructor===Symbol&&t!==Symbol.prototype?"symbol":typeof t})(t)}function r(t,n){if(!(t instanceof n))throw new TypeError("Cannot call a class as a function")}function i(t,n){for(var e=0;e<n.length;e++){var r=n[e];r.enumerable=r.enumerable||!1,r.configurable=!0,"value"in r&&(r.writable=!0),Object.defineProperty(t,r.key,r)}}function u(t,n,e){return n&&i(t.prototype,n),e&&i(t,e),t}function o(t,n,e){return n in t?Object.defineProperty(t,n,{value:e,enumerable:!0,configurable:!0,writable:!0}):t[n]=e,t}function a(t){return(a=Object.setPrototypeOf?Object.getPrototypeOf:function(t){return t.__proto__||Object.getPrototypeOf(t)})(t)}function l(t,n){return(l=Object.setPrototypeOf||function(t,n){return t.__proto__=n,t})(t,n)}function s(){if("undefined"==typeof Reflect||!Reflect.construct)return!1;if(Reflect.construct.sham)return!1;if("function"==typeof Proxy)return!0;try{return Boolean.prototype.valueOf.call(Reflect.construct(Boolean,[],(function(){}))),!0}catch(t){return!1}}function f(t,n,e){return(f=s()?Reflect.construct:function(t,n,e){var r=[null];r.push.apply(r,n);var i=new(Function.bind.apply(t,r));return e&&l(i,e.prototype),i}).apply(null,arguments)}function c(t,n){if(n&&("object"==typeof n||"function"==typeof n))return n;if(void 0!==n)throw new TypeError("Derived constructors may only return object or undefined");return function(t){if(void 0===t)throw new ReferenceError("this hasn't been initialised - super() hasn't been called");return t}(t)}function h(t,n,e){return(h="undefined"!=typeof Reflect&&Reflect.get?Reflect.get:function(t,n,e){var r=function(t,n){for(;!Object.prototype.hasOwnProperty.call(t,n)&&null!==(t=a(t)););return t}(t,n);if(r){var i=Object.getOwnPropertyDescriptor(r,n);return i.get?i.get.call(e):i.value}})(t,n,e||t)}function v(t){return function(t){if(Array.isArray(t))return y(t)}(t)||function(t){if("undefined"!=typeof Symbol&&null!=t[Symbol.iterator]||null!=t["@@iterator"])return Array.from(t)}(t)||function(t,n){if(!t)return;if("string"==typeof t)return y(t,n);var e=Object.prototype.toString.call(t).slice(8,-1);"Object"===e&&t.constructor&&(e=t.constructor.name);if("Map"===e||"Set"===e)return Array.from(t);if("Arguments"===e||/^(?:Ui|I)nt(?:8|16|32)(?:Clamped)?Array$/.test(e))return y(t,n)}(t)||function(){throw new TypeError("Invalid attempt to spread non-iterable instance.\nIn order to be iterable, non-array objects must have a [Symbol.iterator]() method.")}()}function y(t,n){(null==n||n>t.length)&&(n=t.length);for(var e=0,r=new Array(n);e<n;e++)r[e]=t[e];return r}Number.isInteger||(Number.isInteger=function(t){return"number"==typeof t&&isFinite(t)&&Math.floor(t)===t}),Number.EPSILON||(Number.EPSILON=2220446049250313e-31);var g=d(Math.pow(10,-6));function d(t){var n=arguments.length>1&&void 0!==arguments[1]?arguments[1]:6;if(Number.isInteger(t))return t;var e=Math.pow(10,n);return Math.round((+t+Number.EPSILON)*e)/e}function p(t,n){var e=arguments.length>2&&void 0!==arguments[2]?arguments[2]:g;return Math.abs(t-n)<e}var m=Math.PI/180;function b(t){return t}function w(t,n,e){var r=1-e;return 3*e*r*(t*r+n*e)+e*e*e}function A(){var t=arguments.length>0&&void 0!==arguments[0]?arguments[0]:0,n=arguments.length>1&&void 0!==arguments[1]?arguments[1]:0,e=arguments.length>2&&void 0!==arguments[2]?arguments[2]:1,r=arguments.length>3&&void 0!==arguments[3]?arguments[3]:1;return t<0||t>1||e<0||e>1?null:p(t,n)&&p(e,r)?b:function(i){if(i<=0)return t>0?i*n/t:0===n&&e>0?i*r/e:0;if(i>=1)return e<1?1+(i-1)*(r-1)/(e-1):1===e&&t<1?1+(i-1)*(n-1)/(t-1):1;for(var u,o=0,a=1;o<a;){var l=w(t,e,u=(o+a)/2);if(p(i,l))break;l<i?o=u:a=u}return w(n,r,u)}}function _(){return 1}function x(t){return 1===t?1:0}function k(){var t=arguments.length>0&&void 0!==arguments[0]?arguments[0]:1,n=arguments.length>1&&void 0!==arguments[1]?arguments[1]:0;if(1===t){if(0===n)return x;if(1===n)return _}var e=1/t;return function(t){return t>=1?1:(t+=n*e)-t%e}}var S=Math.sin,O=Math.cos,j=Math.acos,E=Math.asin,M=Math.tan,P=Math.atan2,I=Math.PI/180,R=180/Math.PI,F=Math.sqrt,N=function(){function t(){var n=arguments.length>0&&void 0!==arguments[0]?arguments[0]:1,e=arguments.length>1&&void 0!==arguments[1]?arguments[1]:0,i=arguments.length>2&&void 0!==arguments[2]?arguments[2]:0,u=arguments.length>3&&void 0!==arguments[3]?arguments[3]:1,o=arguments.length>4&&void 0!==arguments[4]?arguments[4]:0,a=arguments.length>5&&void 0!==arguments[5]?arguments[5]:0;r(this,t),this.m=[n,e,i,u,o,a],this.i=null,this.w=null,this.s=null}return u(t,[{key:"determinant",get:function(){var t=this.m;return t[0]*t[3]-t[1]*t[2]}},{key:"isIdentity",get:function(){if(null===this.i){var t=this.m;this.i=1===t[0]&&0===t[1]&&0===t[2]&&1===t[3]&&0===t[4]&&0===t[5]}return this.i}},{key:"point",value:function(t,n){var e=this.m;return{x:e[0]*t+e[2]*n+e[4],y:e[1]*t+e[3]*n+e[5]}}},{key:"translateSelf",value:function(){var t=arguments.length>0&&void 0!==arguments[0]?arguments[0]:0,n=arguments.length>1&&void 0!==arguments[1]?arguments[1]:0;if(!t&&!n)return this;var e=this.m;return e[4]+=e[0]*t+e[2]*n,e[5]+=e[1]*t+e[3]*n,this.w=this.s=this.i=null,this}},{key:"rotateSelf",value:function(){var t=arguments.length>0&&void 0!==arguments[0]?arguments[0]:0;if(t%=360){var n=S(t*=I),e=O(t),r=this.m,i=r[0],u=r[1];r[0]=i*e+r[2]*n,r[1]=u*e+r[3]*n,r[2]=r[2]*e-i*n,r[3]=r[3]*e-u*n,this.w=this.s=this.i=null}return this}},{key:"scaleSelf",value:function(){var t=arguments.length>0&&void 0!==arguments[0]?arguments[0]:1,n=arguments.length>1&&void 0!==arguments[1]?arguments[1]:1;if(1!==t||1!==n){var e=this.m;e[0]*=t,e[1]*=t,e[2]*=n,e[3]*=n,this.w=this.s=this.i=null}return this}},{key:"skewSelf",value:function(t,n){if(n%=360,(t%=360)||n){var e=this.m,r=e[0],i=e[1],u=e[2],o=e[3];t&&(t=M(t*I),e[2]+=r*t,e[3]+=i*t),n&&(n=M(n*I),e[0]+=u*n,e[1]+=o*n),this.w=this.s=this.i=null}return this}},{key:"resetSelf",value:function(){var t=arguments.length>0&&void 0!==arguments[0]?arguments[0]:1,n=arguments.length>1&&void 0!==arguments[1]?arguments[1]:0,e=arguments.length>2&&void 0!==arguments[2]?arguments[2]:0,r=arguments.length>3&&void 0!==arguments[3]?arguments[3]:1,i=arguments.length>4&&void 0!==arguments[4]?arguments[4]:0,u=arguments.length>5&&void 0!==arguments[5]?arguments[5]:0,o=this.m;return o[0]=t,o[1]=n,o[2]=e,o[3]=r,o[4]=i,o[5]=u,this.w=this.s=this.i=null,this}},{key:"recomposeSelf",value:function(){var t=arguments.length>0&&void 0!==arguments[0]?arguments[0]:null,n=arguments.length>1&&void 0!==arguments[1]?arguments[1]:null,e=arguments.length>2&&void 0!==arguments[2]?arguments[2]:null,r=arguments.length>3&&void 0!==arguments[3]?arguments[3]:null,i=arguments.length>4&&void 0!==arguments[4]?arguments[4]:null;return this.isIdentity||this.resetSelf(),t&&(t.x||t.y)&&this.translateSelf(t.x,t.y),n&&this.rotateSelf(n),e&&(e.x&&this.skewSelf(e.x,0),e.y&&this.skewSelf(0,e.y)),!r||1===r.x&&1===r.y||this.scaleSelf(r.x,r.y),i&&(i.x||i.y)&&this.translateSelf(i.x,i.y),this}},{key:"decompose",value:function(){var t=arguments.length>0&&void 0!==arguments[0]?arguments[0]:0,n=arguments.length>1&&void 0!==arguments[1]?arguments[1]:0,e=this.m,r=e[0]*e[0]+e[1]*e[1],i=[[e[0],e[1]],[e[2],e[3]]],u=F(r);if(0===u)return{origin:{x:d(e[4]),y:d(e[5])},translate:{x:d(t),y:d(n)},scale:{x:0,y:0},skew:{x:0,y:0},rotate:0};i[0][0]/=u,i[0][1]/=u;var o=e[0]*e[3]-e[1]*e[2]<0;o&&(u=-u);var a=i[0][0]*i[1][0]+i[0][1]*i[1][1];i[1][0]-=i[0][0]*a,i[1][1]-=i[0][1]*a;var l=F(i[1][0]*i[1][0]+i[1][1]*i[1][1]);if(0===l)return{origin:{x:d(e[4]),y:d(e[5])},translate:{x:d(t),y:d(n)},scale:{x:d(u),y:0},skew:{x:0,y:0},rotate:0};i[1][0]/=l,i[1][1]/=l,a/=l;var s=0;return i[1][1]<0?(s=j(i[1][1])*R,i[0][1]<0&&(s=360-s)):s=E(i[0][1])*R,o&&(s=-s),a=P(a,F(i[0][0]*i[0][0]+i[0][1]*i[0][1]))*R,o&&(a=-a),{origin:{x:d(e[4]),y:d(e[5])},translate:{x:d(t),y:d(n)},scale:{x:d(u),y:d(l)},skew:{x:d(a),y:0},rotate:d(s)}}},{key:"clone",value:function(){var t=this.m;return new this.constructor(t[0],t[1],t[2],t[3],t[4],t[5])}},{key:"toString",value:function(){var t=arguments.length>0&&void 0!==arguments[0]?arguments[0]:" ";if(null===this.s){var n=this.m.map((function(t){return d(t)}));1===n[0]&&0===n[1]&&0===n[2]&&1===n[3]?this.s="translate("+n[4]+t+n[5]+")":this.s="matrix("+n.join(t)+")"}return this.s}}],[{key:"create",value:function(t){return t?Array.isArray(t)?f(this,v(t)):t instanceof this?t.clone():(new this).recomposeSelf(t.origin,t.rotate,t.skew,t.scale,t.translate):new this}}]),t}();function T(t,n,e){return t>=.5?e:n}function B(t,n,e){return 0===t||n===e?n:t*(e-n)+n}function q(t,n,e){var r=B(t,n,e);return r<=0?0:r}function D(t,n,e){var r=B(t,n,e);return r<=0?0:r>=1?1:r}function L(t,n,e){return 0===t?n:1===t?e:{x:B(t,n.x,e.x),y:B(t,n.y,e.y)}}function C(t,n,e){var r=function(t,n,e){return Math.round(B(t,n,e))}(t,n,e);return r<=0?0:r>=255?255:r}function V(t,n,e){return 0===t?n:1===t?e:{r:C(t,n.r,e.r),g:C(t,n.g,e.g),b:C(t,n.b,e.b),a:B(t,null==n.a?1:n.a,null==e.a?1:e.a)}}function G(t,n){for(var e=[],r=0;r<t;r++)e.push(n);return e}function z(t,n){if(--n<=0)return t;var e=(t=Object.assign([],t)).length;do{for(var r=0;r<e;r++)t.push(t[r])}while(--n>0);return t}var Y,$=function(){function t(n){r(this,t),this.list=n,this.length=n.length}return u(t,[{key:"setAttribute",value:function(t,n){for(var e=this.list,r=0;r<this.length;r++)e[r].setAttribute(t,n)}},{key:"removeAttribute",value:function(t){for(var n=this.list,e=0;e<this.length;e++)n[e].removeAttribute(t)}},{key:"style",value:function(t,n){for(var e=this.list,r=0;r<this.length;r++)e[r].style[t]=n}}]),t}(),U=/-./g,Q=function(t,n){return n.toUpperCase()};function H(t){return"function"==typeof t?t:T}function J(t){return t?"function"==typeof t?t:Array.isArray(t)?function(t){var n=arguments.length>1&&void 0!==arguments[1]?arguments[1]:b;if(!Array.isArray(t))return n;switch(t.length){case 1:return k(t[0])||n;case 2:return k(t[0],t[1])||n;case 4:return A(t[0],t[1],t[2],t[3])||n}return n}(t,null):function(t,n){var e=arguments.length>2&&void 0!==arguments[2]?arguments[2]:b;switch(t){case"linear":return b;case"steps":return k(n.steps||1,n.jump||0)||e;case"bezier":case"cubic-bezier":return A(n.x1||0,n.y1||0,n.x2||0,n.y2||0)||e}return e}(t.type,t.value,null):null}function Z(t,n,e){var r=arguments.length>3&&void 0!==arguments[3]&&arguments[3],i=n.length-1;if(t<=n[0].t)return r?[0,0,n[0].v]:n[0].v;if(t>=n[i].t)return r?[i,1,n[i].v]:n[i].v;var u,o=n[0],a=null;for(u=1;u<=i;u++){if(!(t>n[u].t)){a=n[u];break}o=n[u]}return null==a?r?[i,1,n[i].v]:n[i].v:o.t===a.t?r?[u,1,a.v]:a.v:(t=(t-o.t)/(a.t-o.t),o.e&&(t=o.e(t)),r?[u,t,e(t,o.v,a.v)]:e(t,o.v,a.v))}function K(t,n){var e=arguments.length>2&&void 0!==arguments[2]?arguments[2]:null;return t&&t.length?"function"!=typeof n?null:("function"!=typeof e&&(e=null),function(r){var i=Z(r,t,n);return null!=i&&e&&(i=e(i)),i}):null}function W(t,n){return t.t-n.t}function X(t,n,r,i,u){var o,a="@"===r[0],l="#"===r[0],s=Y[r],f=T;switch(a?(o=r.substr(1),r=o.replace(U,Q)):l&&(r=r.substr(1)),e(s)){case"function":if(f=s(i,u,Z,J,r,a,n,t),l)return f;break;case"string":f=K(i,H(s));break;case"object":if((f=K(i,H(s.i),s.f))&&"function"==typeof s.u)return s.u(n,f,r,a,t)}return f?function(t,n,e){if(arguments.length>3&&void 0!==arguments[3]&&arguments[3])return t instanceof $?function(r){return t.style(n,e(r))}:function(r){return t.style[n]=e(r)};if(Array.isArray(n)){var r=n.length;return function(i){var u=e(i);if(null==u)for(var o=0;o<r;o++)t[o].removeAttribute(n);else for(var a=0;a<r;a++)t[a].setAttribute(n,u)}}return function(r){var i=e(r);null==i?t.removeAttribute(n):t.setAttribute(n,i)}}(n,r,f,a):null}function tt(t,n,r,i){if(!i||"object"!==e(i))return null;var u=null,o=null;return Array.isArray(i)?o=function(t){if(!t||!t.length)return null;for(var n=0;n<t.length;n++)t[n].e&&(t[n].e=J(t[n].e));return t.sort(W)}(i):(o=i.keys,u=i.data||null),o?X(t,n,r,o,u):null}function nt(t,n,e){if(!e)return null;var r=[];for(var i in e)if(e.hasOwnProperty(i)){var u=tt(t,n,i,e[i]);u&&r.push(u)}return r.length?r:null}function et(t,n){if(!n.settings.duration||n.settings.duration<0)return null;var e,r,i,u,o,a=function(t,n){if(!n)return null;var e=[];if(Array.isArray(n))for(var r=n.length,i=0;i<r;i++){var u=n[i];if(2===u.length){var o=null;if("string"==typeof u[0])o=t.getElementById(u[0]);else if(Array.isArray(u[0])){o=[];for(var a=0;a<u[0].length;a++)if("string"==typeof u[0][a]){var l=t.getElementById(u[0][a]);l&&o.push(l)}o=o.length?1===o.length?o[0]:new $(o):null}if(o){var s=nt(t,o,u[1]);s&&(e=e.concat(s))}}}else for(var f in n)if(n.hasOwnProperty(f)){var c=t.getElementById(f);if(c){var h=nt(t,c,n[f]);h&&(e=e.concat(h))}}return e.length?e:null}(t,n.elements);return a?(e=a,r=n.settings,i=r.duration,u=e.length,o=null,function(t,n){var a=r.iterations||1/0,l=(r.alternate&&a%2==0)^r.direction>0?i:0,s=t%i,f=1+(t-s)/i;n*=r.direction,r.alternate&&f%2==0&&(n=-n);var c=!1;if(f>a)s=l,c=!0,-1===r.fill&&(s=r.direction>0?0:i);else if(n<0&&(s=i-s),s===o)return!1;o=s;for(var h=0;h<u;h++)e[h](s);return c}):null}function rt(t,n){if(Y=n,!t||!t.root||!Array.isArray(t.animations))return null;var e=function(t){for(var n=document.getElementsByTagName("svg"),e=0;e<n.length;e++)if(n[e].id===t.root&&!n[e].svgatorAnimation)return n[e].svgatorAnimation=!0,n[e];return null}(t);if(!e)return null;var r=t.animations.map((function(t){return et(e,t)})).filter((function(t){return!!t}));return r.length?{svg:e,animations:r,animationSettings:t.animationSettings,options:t.options||void 0}:null}function it(t){var n=arguments.length>1&&void 0!==arguments[1]?arguments[1]:null,e=arguments.length>2&&void 0!==arguments[2]?arguments[2]:Number,r=arguments.length>3&&void 0!==arguments[3]?arguments[3]:"undefined"!=typeof BigInt&&BigInt,i="0x"+(t.replace(/[^0-9a-fA-F]+/g,"")||27);return n&&r&&e.isSafeInteger&&!e.isSafeInteger(+i)?e(r(i))%n+n:+i}function ut(t,n,e){return!t||!e||n>t.length?t:t.substring(0,n)+ut(t.substring(n+1),e,e)}function ot(t){var n=arguments.length>1&&void 0!==arguments[1]?arguments[1]:27;return!t||t%n?t%n:[0,1].includes(n)?n:ot(t/n,n)}function at(t,n,e){if(t&&t.length){var r=it(e),i=ot(r)+5,u=ut(t,ot(r,5),i);return u=u.replace(/\x7c$/g,"==").replace(/\x2f$/g,"="),u=function(t,n,e){var r=+("0x"+t.substring(0,4));t=t.substring(4);for(var i=it(n,r)%r+e%27,u=[],o=0;o<t.length;o+=2)if("|"!==t[o]){var a=+("0x"+t[o]+t[o+1])-i;u.push(a)}else{var l=+("0x"+t.substring(o+1,o+1+4))-i;o+=3,u.push(l)}return String.fromCharCode.apply(String,u)}(u=(u=atob(u)).replace(/[\x41-\x5A]/g,""),n,r),u=JSON.parse(u)}}var lt=[{key:"alternate",def:!1},{key:"fill",def:1},{key:"iterations",def:0},{key:"direction",def:1},{key:"speed",def:1},{key:"fps",def:100}],st=function(){function t(n,e){var i=this,u=arguments.length>2&&void 0!==arguments[2]?arguments[2]:null;r(this,t),this._id=0,this._running=!1,this._rollingBack=!1,this._animations=n,this._settings=e,(!u||u<"2022-05-02")&&delete this._settings.speed,lt.forEach((function(t){i._settings[t.key]=i._settings[t.key]||t.def})),this.duration=e.duration,this.offset=e.offset||0,this.rollbackStartOffset=0}return u(t,[{key:"alternate",get:function(){return this._settings.alternate}},{key:"fill",get:function(){return this._settings.fill}},{key:"iterations",get:function(){return this._settings.iterations}},{key:"direction",get:function(){return this._settings.direction}},{key:"speed",get:function(){return this._settings.speed}},{key:"fps",get:function(){return this._settings.fps}},{key:"maxFiniteDuration",get:function(){return this.iterations>0?this.iterations*this.duration:this.duration}},{key:"_apply",value:function(t){for(var n=arguments.length>1&&void 0!==arguments[1]?arguments[1]:{},e=this._animations,r=e.length,i=0,u=0;u<r;u++)n[u]?i++:(n[u]=e[u](t,1),n[u]&&i++);return i}},{key:"_rollback",value:function(t){var n=this,e=1/0,r=null;this.rollbackStartOffset=t,this._rollingBack=!0,this._running=!0;this._id=window.requestAnimationFrame((function i(u){if(n._rollingBack){null==r&&(r=u);var o=Math.round(t-(u-r)*n.speed);if(o>n.duration&&e!==1/0){var a=!!n.alternate&&o/n.duration%2>1,l=o%n.duration;o=(l+=a?n.duration:0)||n.duration}var s=(n.fps?1e3/n.fps:0)*n.speed,f=Math.max(0,o);f<=e-s&&(n.offset=f,e=f,n._apply(f));var c=n.iterations>0&&-1===n.fill&&o>=n.maxFiniteDuration;(o<=0||n.offset<o||c)&&n.stop(),n._id=window.requestAnimationFrame(i)}}))}},{key:"_start",value:function(){var t=this,n=arguments.length>0&&void 0!==arguments[0]?arguments[0]:0,e=-1/0,r=null,i={};this._running=!0;var u=function u(o){null==r&&(r=o);var a=Math.round((o-r)*t.speed+n),l=(t.fps?1e3/t.fps:0)*t.speed;if(a>=e+l&&!t._rollingBack&&(t.offset=a,e=a,t._apply(a,i)===t._animations.length))return void t.pause(!0);t._id=window.requestAnimationFrame(u)};this._id=window.requestAnimationFrame(u)}},{key:"_pause",value:function(){this._id&&window.cancelAnimationFrame(this._id),this._running=!1}},{key:"play",value:function(){if(!this._running)return this._rollingBack?this._rollback(this.offset):this._start(this.offset)}},{key:"stop",value:function(){this._pause(),this.offset=0,this.rollbackStartOffset=0,this._rollingBack=!1,this._apply(0)}},{key:"reachedToEnd",value:function(){return this.iterations>0&&this.offset>=this.iterations*this.duration}},{key:"restart",value:function(){var t=arguments.length>0&&void 0!==arguments[0]&&arguments[0];this.stop(t),this.play(t)}},{key:"pause",value:function(){this._pause()}},{key:"reverse",value:function(){this.direction=-this.direction}}],[{key:"build",value:function(t,n){delete t.animationSettings,t.options=at(t.options,t.root,"5c7f360c"),t.animations.map((function(n){n.settings=at(n.s,t.root,"5c7f360c"),delete n.s,t.animationSettings||(t.animationSettings=n.settings)}));var e=t.version;if(!(t=rt(t,n)))return null;var r=t.options||{},i=new this(t.animations,t.animationSettings,e);return{el:t.svg,options:r,player:i}}},{key:"push",value:function(t){return this.build(t)}},{key:"init",value:function(){var t=this,n=window.__SVGATOR_PLAYER__&&window.__SVGATOR_PLAYER__["5c7f360c"];Array.isArray(n)&&n.splice(0).forEach((function(n){return t.build(n)}))}}]),t}();function ft(t){return d(t)+""}function ct(t){var n=arguments.length>1&&void 0!==arguments[1]?arguments[1]:" ";return t&&t.length?t.map(ft).join(n):""}function ht(t){if(!t)return"transparent";if(null==t.a||t.a>=1){var n=function(t){return 1===(t=parseInt(t).toString(16)).length?"0"+t:t},e=function(t){return t.charAt(0)===t.charAt(1)},r=n(t.r),i=n(t.g),u=n(t.b);return e(r)&&e(i)&&e(u)&&(r=r.charAt(0),i=i.charAt(0),u=u.charAt(0)),"#"+r+i+u}return"rgba("+t.r+","+t.g+","+t.b+","+t.a+")"}function vt(t){return t?"url(#"+t+")":"none"}!function(){for(var t=0,n=["ms","moz","webkit","o"],e=0;e<n.length&&!window.requestAnimationFrame;++e)window.requestAnimationFrame=window[n[e]+"RequestAnimationFrame"],window.cancelAnimationFrame=window[n[e]+"CancelAnimationFrame"]||window[n[e]+"CancelRequestAnimationFrame"];window.requestAnimationFrame||(window.requestAnimationFrame=function(n){var e=Date.now(),r=Math.max(0,16-(e-t)),i=window.setTimeout((function(){n(e+r)}),r);return t=e+r,i},window.cancelAnimationFrame=window.clearTimeout)}();var yt={f:null,i:function(t,n,e){return 0===t?n:1===t?e:{x:q(t,n.x,e.x),y:q(t,n.y,e.y)}},u:function(t,n){return function(e){var r=n(e);t.setAttribute("rx",ft(r.x)),t.setAttribute("ry",ft(r.y))}}},gt={f:null,i:function(t,n,e){return 0===t?n:1===t?e:{width:q(t,n.width,e.width),height:q(t,n.height,e.height)}},u:function(t,n){return function(e){var r=n(e);t.setAttribute("width",ft(r.width)),t.setAttribute("height",ft(r.height))}}};Object.freeze({M:2,L:2,Z:0,H:1,V:1,C:6,Q:4,T:2,S:4,A:7});var dt={},pt=null;function mt(t){var n=function(){if(pt)return pt;if("object"!==("undefined"==typeof document?"undefined":e(document))||!document.createElementNS)return{};var t=document.createElementNS("http://www.w3.org/2000/svg","svg");return t&&t.style?(t.style.position="absolute",t.style.opacity="0.01",t.style.zIndex="-9999",t.style.left="-9999px",t.style.width="1px",t.style.height="1px",pt={svg:t}):{}}().svg;if(!n)return function(t){return null};var r=document.createElementNS(n.namespaceURI,"path");r.setAttributeNS(null,"d",t),r.setAttributeNS(null,"fill","none"),r.setAttributeNS(null,"stroke","none"),n.appendChild(r);var i=r.getTotalLength();return function(t){var n=r.getPointAtLength(i*t);return{x:n.x,y:n.y}}}function bt(t){return dt[t]?dt[t]:dt[t]=mt(t)}function wt(t,n,e,r){if(!t||!r)return!1;var i=["M",t.x,t.y];if(n&&e&&(i.push("C"),i.push(n.x),i.push(n.y),i.push(e.x),i.push(e.y)),n?!e:e){var u=n||e;i.push("Q"),i.push(u.x),i.push(u.y)}return n||e||i.push("L"),i.push(r.x),i.push(r.y),i.join(" ")}function At(t,n,e,r){var i=arguments.length>4&&void 0!==arguments[4]?arguments[4]:1,u=wt(t,n,e,r),o=bt(u);try{return o(i)}catch(t){return null}}function _t(t,n,e){return t+(n-t)*e}function xt(t,n,e){var r=arguments.length>3&&void 0!==arguments[3]&&arguments[3],i={x:_t(t.x,n.x,e),y:_t(t.y,n.y,e)};return r&&(i.a=kt(t,n)),i}function kt(t,n){return Math.atan2(n.y-t.y,n.x-t.x)}function St(t,n,e,r){var i=1-r;return i*i*t+2*i*r*n+r*r*e}function Ot(t,n,e,r){return 2*(1-r)*(n-t)+2*r*(e-n)}function jt(t,n,e,r){var i=arguments.length>4&&void 0!==arguments[4]&&arguments[4],u=At(t,n,null,e,r);return u||(u={x:St(t.x,n.x,e.x,r),y:St(t.y,n.y,e.y,r)}),i&&(u.a=Et(t,n,e,r)),u}function Et(t,n,e,r){return Math.atan2(Ot(t.y,n.y,e.y,r),Ot(t.x,n.x,e.x,r))}function Mt(t,n,e,r,i){var u=i*i;return i*u*(r-t+3*(n-e))+3*u*(t+e-2*n)+3*i*(n-t)+t}function Pt(t,n,e,r,i){var u=1-i;return 3*(u*u*(n-t)+2*u*i*(e-n)+i*i*(r-e))}function It(t,n,e,r,i){var u=arguments.length>5&&void 0!==arguments[5]&&arguments[5],o=At(t,n,e,r,i);return o||(o={x:Mt(t.x,n.x,e.x,r.x,i),y:Mt(t.y,n.y,e.y,r.y,i)}),u&&(o.a=Rt(t,n,e,r,i)),o}function Rt(t,n,e,r,i){return Math.atan2(Pt(t.y,n.y,e.y,r.y,i),Pt(t.x,n.x,e.x,r.x,i))}function Ft(t,n,e){var r=arguments.length>3&&void 0!==arguments[3]&&arguments[3];if(Tt(n)){if(Bt(e))return jt(n,e.start,e,t,r)}else if(Tt(e)){if(qt(n))return jt(n,n.end,e,t,r)}else{if(qt(n))return Bt(e)?It(n,n.end,e.start,e,t,r):jt(n,n.end,e,t,r);if(Bt(e))return jt(n,e.start,e,t,r)}return xt(n,e,t,r)}function Nt(t,n,e){var r=Ft(t,n,e,!0);return r.a=function(t){return arguments.length>1&&void 0!==arguments[1]&&arguments[1]?t+Math.PI:t}(r.a)/m,r}function Tt(t){return!t.type||"corner"===t.type}function Bt(t){return null!=t.start&&!Tt(t)}function qt(t){return null!=t.end&&!Tt(t)}var Dt=new N;var Lt={f:ft,i:B},Ct={f:ft,i:D};function Vt(t,n,e){return t.map((function(t){return function(t,n,e){var r=t.v;if(!r||"g"!==r.t||r.s||!r.v||!r.r)return t;var i=e.getElementById(r.r),u=i&&i.querySelectorAll("stop")||[];return r.s=r.v.map((function(t,n){var e=u[n]&&u[n].getAttribute("offset");return{c:t,o:e=d(parseInt(e)/100)}})),delete r.v,t}(t,0,e)}))}var Gt={gt:"gradientTransform",c:{x:"cx",y:"cy"},rd:"r",f:{x:"x1",y:"y1"},to:{x:"x2",y:"y2"}};function zt(t,n,r,i,u,o,a,l){return Vt(t,0,l),n=function(t,n,e){for(var r,i,u,o=t.length-1,a={},l=0;l<=o;l++)(r=t[l]).e&&(r.e=n(r.e)),r.v&&"g"===(i=r.v).t&&i.r&&(u=e.getElementById(i.r))&&(a[i.r]={e:u,s:u.querySelectorAll("stop")});return a}(t,i,l),function(i){var u=r(i,t,Yt);if(!u)return"none";if("c"===u.t)return ht(u.v);if("g"===u.t){if(!n[u.r])return vt(u.r);var o=n[u.r];return function(t,n){for(var e=t.s,r=e.length;r<n.length;r++){var i=e[e.length-1].cloneNode();i.id=Qt(i.id),t.e.appendChild(i),e=t.s=t.e.querySelectorAll("stop")}for(var u=0,o=e.length,a=n.length-1;u<o;u++)e[u].setAttribute("stop-color",ht(n[Math.min(u,a)].c)),e[u].setAttribute("offset",n[Math.min(u,a)].o)}(o,u.s),Object.keys(Gt).forEach((function(t){if(void 0!==u[t])if("object"!==e(Gt[t])){var n,r="gt"===t?(n=u[t],Array.isArray(n)?"matrix("+n.join(" ")+")":""):u[t],i=Gt[t];o.e.setAttribute(i,r)}else Object.keys(Gt[t]).forEach((function(n){if(void 0!==u[t][n]){var e=u[t][n],r=Gt[t][n];o.e.setAttribute(r,e)}}))})),vt(u.r)}return"none"}}function Yt(t,e,r){if(0===t)return e;if(1===t)return r;if(e&&r){var i=e.t;if(i===r.t)switch(e.t){case"c":return{t:i,v:V(t,e.v,r.v)};case"g":if(e.r===r.r){var u={t:i,s:$t(t,e.s,r.s),r:e.r};return e.gt&&r.gt&&(u.gt=function(t,n,e){var r=n.length;if(r!==e.length)return T(t,n,e);for(var i=new Array(r),u=0;u<r;u++)i[u]=B(t,n[u],e[u]);return i}(t,e.gt,r.gt)),e.c?(u.c=L(t,e.c,r.c),u.rd=q(t,e.rd,r.rd)):e.f&&(u.f=L(t,e.f,r.f),u.to=L(t,e.to,r.to)),u}}if("c"===e.t&&"g"===r.t||"c"===r.t&&"g"===e.t){var o="c"===e.t?e:r,a="g"===e.t?n({},e):n({},r),l=a.s.map((function(t){return{c:o.v,o:t.o}}));return a.s="c"===e.t?$t(t,l,a.s):$t(t,a.s,l),a}}return T(t,e,r)}function $t(t,n,e){if(n.length===e.length)return n.map((function(n,r){return Ut(t,n,e[r])}));for(var r=Math.max(n.length,e.length),i=[],u=0;u<r;u++){var o=Ut(t,n[Math.min(u,n.length-1)],e[Math.min(u,e.length-1)]);i.push(o)}return i}function Ut(t,n,e){return{o:D(t,n.o,e.o||0),c:V(t,n.c,e.c||{})}}function Qt(t){return t.replace(/-fill-([0-9]+)$/,(function(t,n){return"-fill-"+(+n+1)}))}var Ht={fill:zt,"fill-opacity":Ct,stroke:zt,"stroke-opacity":Ct,"stroke-width":Lt,"stroke-dashoffset":{f:ft,i:B},"stroke-dasharray":{f:function(t){var n=arguments.length>1&&void 0!==arguments[1]?arguments[1]:" ";return t&&t.length>0&&(t=t.map((function(t){return d(t,4)}))),ct(t,n)},i:function(t,n,e){var r,i,u,o=n.length,a=e.length;if(o!==a)if(0===o)n=G(o=a,0);else if(0===a)a=o,e=G(o,0);else{var l=(u=(r=o)*(i=a)/function(t,n){for(var e;n;)e=n,n=t%n,t=e;return t||1}(r,i))<0?-u:u;n=z(n,Math.floor(l/o)),e=z(e,Math.floor(l/a)),o=a=l}for(var s=[],f=0;f<o;f++)s.push(d(q(t,n[f],e[f])));return s}},opacity:Ct,transform:function(t,n,r,i){if(!(t=function(t,n){if(!t||"object"!==e(t))return null;var r=!1;for(var i in t)t.hasOwnProperty(i)&&(t[i]&&t[i].length?(t[i].forEach((function(t){t.e&&(t.e=n(t.e))})),r=!0):delete t[i]);return r?t:null}(t,i)))return null;var u=function(e,i,u){var o=arguments.length>3&&void 0!==arguments[3]?arguments[3]:null;return t[e]?r(i,t[e],u):n&&n[e]?n[e]:o};return n&&n.a&&t.o?function(n){var e=r(n,t.o,Nt);return Dt.recomposeSelf(e,u("r",n,B,0)+e.a,u("k",n,L),u("s",n,L),u("t",n,L)).toString()}:function(t){return Dt.recomposeSelf(u("o",t,Ft,null),u("r",t,B,0),u("k",t,L),u("s",t,L),u("t",t,L)).toString()}},r:Lt,"#size":gt,"#radius":yt,_:function(t,n){if(Array.isArray(t))for(var e=0;e<t.length;e++)this[t[e]]=n;else this[t]=n}},Jt=function(t){!function(t,n){if("function"!=typeof n&&null!==n)throw new TypeError("Super expression must either be null or a function");t.prototype=Object.create(n&&n.prototype,{constructor:{value:t,writable:!0,configurable:!0}}),n&&l(t,n)}(o,t);var n,e,i=(n=o,e=s(),function(){var t,r=a(n);if(e){var i=a(this).constructor;t=Reflect.construct(r,arguments,i)}else t=r.apply(this,arguments);return c(this,t)});function o(){return r(this,o),i.apply(this,arguments)}return u(o,null,[{key:"build",value:function(t){var n=h(a(o),"build",this).call(this,t,Ht);if(!n)return null;n.el,n.options,function(t,n,e){t.play()}(n.player)}}]),o}(st);return Jt.init(),Jt}));
(function(s,i,o,w,d,a,b){w[o]=w[o]||{};w[o][s]=w[o][s]||[];w[o][s].push(i);})('5c7f360c',{"root":"e2CFqp4BWbT1","version":"2022-05-04","animations":[{"elements":{"e2CFqp4BWbT33":{"transform":{"data":{"o":{"x":293.639999,"y":676.638489,"type":"corner"},"t":{"x":-293.639999,"y":-676.638489}},"keys":{"s":[{"t":1300,"v":{"x":1,"y":1}},{"t":1600,"v":{"x":1.25,"y":1.25}},{"t":1900,"v":{"x":1,"y":1}}]}},"opacity":[{"t":1300,"v":0.75},{"t":1600,"v":1},{"t":1900,"v":0.75}]},"e2CFqp4BWbT37":{"transform":{"data":{"o":{"x":82.64,"y":676.64,"type":"corner"},"r":1.582941,"t":{"x":-82.639999,"y":-676.640015}},"keys":{"s":[{"t":0,"v":{"x":1,"y":1}},{"t":300,"v":{"x":1.248465,"y":1.250329}},{"t":600,"v":{"x":1,"y":1}}]}},"opacity":[{"t":0,"v":0.7},{"t":300,"v":1},{"t":600,"v":0.7}]},"e2CFqp4BWbT44":{"transform":{"data":{"t":{"x":-187.5,"y":-406.5}},"keys":{"o":[{"t":1300,"v":{"x":187.596852,"y":407.645828,"type":"cusp"}},{"t":1800,"v":{"x":572.860145,"y":369.753584,"type":"cusp"}}],"r":[{"t":1300,"v":-0.27597},{"t":1700,"v":9.327597}]}}},"e2CFqp4BWbT47":{"transform":{"data":{"t":{"x":-187.5,"y":-406.5}},"keys":{"o":[{"t":0,"v":{"x":187.214683,"y":406.104095,"type":"cusp"}},{"t":500,"v":{"x":-211.794466,"y":365.124353,"type":"cusp"}}],"r":[{"t":0,"v":-0.010852},{"t":400,"v":-13.918649}]}}}},"s":"MHDA1ZGM3NmViMGMxYmAVhZGMwYjViYmJhNmUU4NjdlODI3Y0g3Yzc4XNmViMGI1YmViMWFmYDzBiNWJiYmE2ZTg2N2UQ3OEo2ZWI1YzBiMWJNlYWRXYzBiNWJiYmFiYZjZlODY3Yzc4NmViMOmI1RmI4Yjg2ZTg2N2RQ3ODZlYWRiOGMwYjFTiZVJCYmFhZGMwYjE2PZTg2YjJhZFNiOGJmYWjE3ODZlYmZiY2IxYjDFiMDZlUzg2N2Q3ODZNlYjJBYmNiZjZlODY3IZDdjN2NjOQ|"}],"options":"MQDAxMDg4MmY4MDgxNmNVKN2Y4MU4yZjQ3MmYT3OTdjNmU3MTJmOGE/I"},'__SVGATOR_PLAYER__',window,document)
]]></script>
</svg>
